# xmcd
#
# Track frame offsets: 
#        150
#        37083
#        63079
#        76899
#        95705
#        128173
#        151813
#        202627
#        220685
#        236989
#
# Disc length: 3492 seconds
#
# Revision: 2
# Processed by: cddbd v1.5.2PL0 Copyright (c) Steve Scherf et al.
# Submitted via: ExactAudioCopyFreeDBPlugin 1.0
#
DISCID=7d0da20a
DTITLE=Groundhogs - Groundhog Blues
DYEAR=1999
DGENRE=Blues Rock
TTITLE0=Still A Fool
TTITLE1=I Love You Misogyny
TTITLE2=Thank Christ For The Bomb
TTITLE3=Soldier
TTITLE4=Mistreated Blues
TTITLE5=Me And The Devil
TTITLE6=Cherry Red
TTITLE7=Groundhog Blues
TTITLE8=Been There Done That
TTITLE9=Down In The Bottom
EXTD=
EXTT0=
EXTT1=
EXTT2=
EXTT3=
EXTT4=
EXTT5=
EXTT6=
EXTT7=
EXTT8=
EXTT9=
PLAYORDER=
